<svg width="30" height="30" viewBox="0 0 30 30" fill="none" xmlns="http://www.w3.org/2000/svg">
<path d="M14.6853 2.6445C18.609 2.6445 19.0737 2.66171 20.6168 2.73055C22.0509 2.79365 22.8253 3.03458 23.3416 3.23536C24.0243 3.49924 24.5176 3.82048 25.0281 4.33102C25.5444 4.8473 25.8599 5.3349 26.1238 6.01754C26.3246 6.53382 26.5655 7.31397 26.6286 8.74235C26.6974 10.2912 26.7147 10.7558 26.7147 14.6738C26.7147 18.5976 26.6974 19.0622 26.6286 20.6053C26.5655 22.0394 26.3246 22.8139 26.1238 23.3301C25.8599 24.0128 25.5387 24.5061 25.0281 25.0167C24.5119 25.5329 24.0243 25.8485 23.3416 26.1123C22.8253 26.3131 22.0452 26.554 20.6168 26.6171C19.068 26.686 18.6033 26.7032 14.6853 26.7032C10.7616 26.7032 10.2969 26.686 8.75382 26.6171C7.31971 26.554 6.54529 26.3131 6.02901 26.1123C5.34637 25.8485 4.85304 25.5272 4.34249 25.0167C3.82621 24.5004 3.51071 24.0128 3.24683 23.3301C3.04606 22.8139 2.80512 22.0337 2.74202 20.6053C2.67319 19.0565 2.65598 18.5918 2.65598 14.6738C2.65598 10.7501 2.67319 10.2855 2.74202 8.74235C2.80512 7.30824 3.04606 6.53382 3.24683 6.01754C3.51071 5.3349 3.83195 4.84156 4.34249 4.33102C4.85877 3.81474 5.34637 3.49924 6.02901 3.23536C6.54529 3.03458 7.32545 2.79365 8.75382 2.73055C10.2969 2.66171 10.7616 2.6445 14.6853 2.6445ZM14.6853 0C10.6985 0 10.1994 0.0172094 8.63336 0.0860468C7.07304 0.154884 6.00033 0.407288 5.07102 0.768684C4.10156 1.14729 3.28125 1.64636 2.46667 2.46667C1.64636 3.28125 1.14729 4.10156 0.768684 5.06529C0.407288 6.00033 0.154884 7.06731 0.0860468 8.62762C0.0172094 10.1994 0 10.6985 0 14.6853C0 18.6721 0.0172094 19.1712 0.0860468 20.7373C0.154884 22.2976 0.407288 23.3703 0.768684 24.2996C1.14729 25.2691 1.64636 26.0894 2.46667 26.904C3.28125 27.7185 4.10156 28.2233 5.06529 28.5962C6.00033 28.9576 7.06731 29.21 8.62762 29.2788C10.1937 29.3477 10.6927 29.3649 14.6796 29.3649C18.6664 29.3649 19.1655 29.3477 20.7315 29.2788C22.2918 29.21 23.3646 28.9576 24.2939 28.5962C25.2576 28.2233 26.0779 27.7185 26.8925 26.904C27.7071 26.0894 28.2119 25.2691 28.5847 24.3053C28.9461 23.3703 29.1985 22.3033 29.2674 20.743C29.3362 19.177 29.3534 18.6779 29.3534 14.6911C29.3534 10.7042 29.3362 10.2051 29.2674 8.6391C29.1985 7.07878 28.9461 6.00606 28.5847 5.07676C28.2233 4.10156 27.7243 3.28125 26.904 2.46667C26.0894 1.6521 25.2691 1.14729 24.3053 0.774421C23.3703 0.413024 22.3033 0.160621 20.743 0.0917832C19.1712 0.0172094 18.6721 0 14.6853 0Z" fill="black"/>
<path d="M14.6855 7.14148C10.5209 7.14148 7.14209 10.5202 7.14209 14.6849C7.14209 18.8496 10.5209 22.2283 14.6855 22.2283C18.8502 22.2283 22.229 18.8496 22.229 14.6849C22.229 10.5202 18.8502 7.14148 14.6855 7.14148ZM14.6855 19.5781C11.9837 19.5781 9.79233 17.3868 9.79233 14.6849C9.79233 11.983 11.9837 9.79172 14.6855 9.79172C17.3874 9.79172 19.5787 11.983 19.5787 14.6849C19.5787 17.3868 17.3874 19.5781 14.6855 19.5781Z" fill="black"/>
<path d="M24.2883 6.84325C24.2883 7.81844 23.4967 8.60434 22.5272 8.60434C21.552 8.60434 20.7661 7.81271 20.7661 6.84325C20.7661 5.86805 21.5577 5.08215 22.5272 5.08215C23.4967 5.08215 24.2883 5.87378 24.2883 6.84325Z" fill="black"/>
</svg>
