<svg width="30" height="30" viewBox="0 0 30 30" fill="none" xmlns="http://www.w3.org/2000/svg">
<path d="M14.6853 0C6.57397 0 0 6.57397 0 14.6853C0 20.9094 3.8721 26.2213 9.33321 28.361C9.207 27.1965 9.08654 25.4182 9.38483 24.1505C9.65445 23.0032 11.1058 16.8537 11.1058 16.8537C11.1058 16.8537 10.6641 15.976 10.6641 14.6738C10.6641 12.6317 11.8458 11.1058 13.32 11.1058C14.5706 11.1058 15.1787 12.0465 15.1787 13.1766C15.1787 14.4386 14.3755 16.3202 13.9625 18.0641C13.6183 19.5269 14.6968 20.7201 16.1366 20.7201C18.7467 20.7201 20.7545 17.9666 20.7545 13.9969C20.7545 10.4805 18.2304 8.01956 14.6222 8.01956C10.4461 8.01956 7.99088 11.1517 7.99088 14.3928C7.99088 15.6548 8.47847 17.0086 9.08654 17.7428C9.207 17.8863 9.22421 18.0182 9.18979 18.1616C9.0808 18.6263 8.8284 19.6244 8.78251 19.8252C8.71941 20.0948 8.57026 20.1522 8.28917 20.0202C6.45351 19.1655 5.30622 16.4866 5.30622 14.3297C5.30622 9.6946 8.67351 5.44389 15.0066 5.44389C20.1005 5.44389 24.0587 9.07507 24.0587 13.9281C24.0587 18.9877 20.8692 23.0605 16.4407 23.0605C14.9549 23.0605 13.5552 22.2861 13.0734 21.374C13.0734 21.374 12.3391 24.1791 12.1613 24.8675C11.8286 26.141 10.9337 27.7415 10.3371 28.7167C11.7138 29.1412 13.1709 29.3706 14.6853 29.3706C22.7967 29.3706 29.3706 22.7967 29.3706 14.6853C29.3706 6.57397 22.7967 0 14.6853 0Z" fill="black"/>
</svg>
