# This file uses centimeters as units for non-parametric coordinates.

mtllib pot.mtl
g default
v -0.682421 -0.979408 0.682421
v 0.682421 -0.979408 0.682421
v -1.119289 1.218883 1.119289
v 1.119289 1.218883 1.119289
v -1.119289 1.218883 -1.119289
v 1.119289 1.218883 -1.119289
v -0.682421 -0.979408 -0.682421
v 0.682421 -0.979408 -0.682421
v 1.119289 0.391670 1.119289
v -1.119289 0.391670 1.119289
v -1.119289 0.391670 -1.119289
v 1.119289 0.391670 -1.119289
v 1.119289 0.805277 1.119289
v -1.119289 0.805277 1.119289
v -1.119289 0.805277 -1.119289
v 1.119289 0.805277 -1.119289
v 0.933261 -0.021937 0.933261
v -0.933261 -0.021937 0.933261
v -0.933261 -0.021937 -0.933261
v 0.933261 -0.021937 -0.933261
v -1.599870 1.218883 0.000000
v -1.599870 0.805277 0.000000
v -1.599870 0.391670 0.000000
v -1.333969 -0.021937 0.000000
v -0.975427 -0.979408 0.000000
v 0.975427 -0.979408 0.000000
v 1.333969 -0.021937 0.000000
v 1.599870 0.391670 0.000000
v 1.599870 0.805277 0.000000
v 1.599870 1.218883 0.000000
v 0.000000 1.218883 -1.599870
v 0.000000 0.805277 -1.599870
v 0.000000 0.391670 -1.599870
v 0.000000 -0.021937 -1.333969
v 0.000000 -0.979408 -0.975427
v 0.000000 -0.979408 0.000000
v 0.000000 -0.979408 0.975427
v 0.000000 -0.021937 1.293486
v 0.000000 0.391670 1.599870
v 0.000000 0.805277 1.599870
v 0.000000 1.218883 1.599870
v 0.000000 0.995988 0.000000
v 0.661125 1.218883 -1.341713
v 0.661125 0.805277 -1.341713
v 0.661125 0.391670 -1.341713
v 0.551244 -0.021937 -1.121953
v 0.403082 -0.979408 -0.825628
v 0.341210 -0.979408 0.000000
v 0.403082 -0.979408 0.786700
v 0.551244 -0.021937 1.083025
v 0.661125 0.391670 1.302785
v 0.661125 0.805277 1.302785
v 0.661125 1.218883 1.302785
v 0.952947 0.995988 0.000000
v -0.661125 1.218883 -1.341713
v -0.661125 0.805277 -1.341713
v -0.661125 0.391670 -1.341713
v -0.551244 -0.021937 -1.121953
v -0.403082 -0.979408 -0.825628
v -0.341210 -0.979408 0.000000
v -0.403082 -0.979408 0.786700
v -0.551244 -0.021937 1.083025
v -0.661125 0.391670 1.302785
v -0.661125 0.805277 1.302785
v -0.661125 1.218883 1.302785
v -0.952947 0.995988 0.000000
v -1.322249 1.218883 -0.680589
v -1.322249 0.805277 -0.680589
v -1.322249 0.391670 -0.680589
v -1.102489 -0.021937 -0.570708
v -0.806164 -0.979408 -0.422546
v -0.341210 -0.979408 -0.341210
v 0.000000 -0.979408 -0.341210
v 0.341210 -0.979408 -0.341210
v 0.806164 -0.979408 -0.422546
v 1.102489 -0.021937 -0.570708
v 1.322249 0.391670 -0.680589
v 1.322249 0.805277 -0.680589
v 1.322249 1.218883 -0.680589
v 0.952947 0.995988 -0.952947
v 0.000000 0.995988 -0.952947
v -0.952947 0.995988 -0.952947
v -1.322249 1.218883 0.641661
v -1.322249 0.805277 0.641661
v -1.322249 0.391670 0.641661
v -1.102489 -0.021937 0.531781
v -0.806164 -0.979408 0.383618
v -0.341210 -0.979408 0.341210
v 0.000000 -0.979408 0.341210
v 0.341210 -0.979408 0.341210
v 0.806164 -0.979408 0.383618
v 1.102489 -0.021937 0.531781
v 1.322249 0.391670 0.641661
v 1.322249 0.805277 0.641661
v 1.322249 1.218883 0.641661
v 0.952947 0.995988 0.952947
v 0.000000 0.995988 0.952947
v -0.952947 0.995988 0.952947
vt 0.375000 0.000000
vt 0.625000 0.000000
vt 0.375000 0.250000
vt 0.625000 0.250000
vt 0.375000 0.500000
vt 0.625000 0.500000
vt 0.375000 0.750000
vt 0.625000 0.750000
vt 0.375000 1.000000
vt 0.625000 1.000000
vt 0.875000 0.000000
vt 0.875000 0.250000
vt 0.125000 0.000000
vt 0.125000 0.250000
vt 0.625000 0.125000
vt 0.375000 0.125000
vt 0.125000 0.125000
vt 0.375000 0.625000
vt 0.625000 0.625000
vt 0.875000 0.125000
vt 0.625000 0.187500
vt 0.375000 0.187500
vt 0.125000 0.187500
vt 0.375000 0.562500
vt 0.625000 0.562500
vt 0.875000 0.187500
vt 0.625000 0.062500
vt 0.375000 0.062500
vt 0.125000 0.062500
vt 0.375000 0.687500
vt 0.625000 0.687500
vt 0.875000 0.062500
vt 0.250000 0.250000
vt 0.375000 0.375000
vt 0.250000 0.187500
vt 0.250000 0.125000
vt 0.250000 0.062500
vt 0.250000 0.000000
vt 0.375000 0.875000
vt 0.625000 0.875000
vt 0.750000 0.000000
vt 0.750000 0.062500
vt 0.750000 0.125000
vt 0.750000 0.187500
vt 0.625000 0.375000
vt 0.750000 0.250000
vt 0.500000 0.500000
vt 0.500000 0.562500
vt 0.500000 0.625000
vt 0.500000 0.687500
vt 0.500000 0.750000
vt 0.500000 0.875000
vt 0.500000 0.000000
vt 0.500000 1.000000
vt 0.500000 0.062500
vt 0.500000 0.125000
vt 0.500000 0.187500
vt 0.500000 0.250000
vt 0.500000 0.375000
vt 0.562500 0.500000
vt 0.562500 0.562500
vt 0.562500 0.625000
vt 0.562500 0.687500
vt 0.562500 0.750000
vt 0.562500 0.875000
vt 0.562500 0.000000
vt 0.562500 1.000000
vt 0.562500 0.062500
vt 0.562500 0.125000
vt 0.562500 0.187500
vt 0.562500 0.250000
vt 0.562500 0.375000
vt 0.437500 0.500000
vt 0.437500 0.562500
vt 0.437500 0.625000
vt 0.437500 0.687500
vt 0.437500 0.750000
vt 0.437500 0.875000
vt 0.437500 0.000000
vt 0.437500 1.000000
vt 0.437500 0.062500
vt 0.437500 0.125000
vt 0.437500 0.187500
vt 0.437500 0.250000
vt 0.437500 0.375000
vt 0.187500 0.250000
vt 0.375000 0.437500
vt 0.187500 0.187500
vt 0.187500 0.125000
vt 0.187500 0.062500
vt 0.187500 0.000000
vt 0.375000 0.812500
vt 0.437500 0.812500
vt 0.500000 0.812500
vt 0.562500 0.812500
vt 0.625000 0.812500
vt 0.812500 0.000000
vt 0.812500 0.062500
vt 0.812500 0.125000
vt 0.812500 0.187500
vt 0.625000 0.437500
vt 0.812500 0.250000
vt 0.562500 0.437500
vt 0.500000 0.437500
vt 0.437500 0.437500
vt 0.312500 0.250000
vt 0.375000 0.312500
vt 0.312500 0.187500
vt 0.312500 0.125000
vt 0.312500 0.062500
vt 0.312500 0.000000
vt 0.375000 0.937500
vt 0.437500 0.937500
vt 0.500000 0.937500
vt 0.562500 0.937500
vt 0.625000 0.937500
vt 0.687500 0.000000
vt 0.687500 0.062500
vt 0.687500 0.125000
vt 0.687500 0.187500
vt 0.625000 0.312500
vt 0.687500 0.250000
vt 0.562500 0.312500
vt 0.500000 0.312500
vt 0.437500 0.312500
vn -0.339345 -0.323130 0.883421
vn -0.355853 -0.315210 0.879779
vn -0.345140 -0.398383 0.849806
vn -0.332009 -0.401982 0.853335
vn 0.486348 0.725900 -0.486348
vn 0.120198 0.891876 -0.436016
vn 0.144683 0.978711 -0.145573
vn 0.429506 0.895943 -0.113181
vn -0.406643 -0.406452 -0.818192
vn -0.361486 -0.400971 -0.841754
vn -0.372247 -0.328942 -0.867888
vn -0.423506 -0.329372 -0.843894
vn 0.000000 -1.000000 -0.000000
vn 0.000000 -1.000000 -0.000000
vn 0.000000 -1.000000 0.000000
vn 0.000000 -1.000000 0.000000
vn 0.872345 -0.325302 0.364956
vn 0.868828 -0.325451 0.373121
vn 0.843597 -0.396443 0.362184
vn 0.843675 -0.403072 0.354608
vn -0.868828 -0.325451 0.373121
vn -0.872345 -0.325302 0.364956
vn -0.843675 -0.403072 0.354608
vn -0.843597 -0.396443 0.362184
vn -0.358097 -0.255660 0.898001
vn -0.371334 -0.282522 0.884473
vn -0.394534 0.000000 0.918881
vn -0.371794 0.000000 0.928315
vn -0.884248 -0.272004 0.379631
vn -0.889328 -0.258374 0.377277
vn -0.920353 0.000000 0.391089
vn -0.918881 0.000000 0.394534
vn -0.436725 0.000000 -0.899595
vn -0.394534 0.000000 -0.918881
vn -0.379787 -0.272929 -0.883896
vn -0.422609 -0.262765 -0.867385
vn 0.889328 -0.258374 0.377277
vn 0.884248 -0.272004 0.379631
vn 0.918881 0.000000 0.394534
vn 0.920353 0.000000 0.391089
vn -0.394534 0.000000 0.918881
vn -0.371794 0.000000 0.928315
vn -0.920353 0.000000 0.391089
vn -0.918881 0.000000 0.394534
vn -0.436725 0.000000 -0.899595
vn -0.394534 0.000000 -0.918881
vn 0.918881 0.000000 0.394534
vn 0.920353 0.000000 0.391089
vn -0.918881 0.000000 -0.394534
vn -1.000000 0.000000 0.000000
vn -1.000000 0.000000 0.000000
vn -0.918881 0.000000 -0.394534
vn -0.884060 -0.272461 -0.379742
vn -0.960545 -0.278124 -0.000546
vn -0.842466 -0.399227 -0.361758
vn -0.901454 -0.432874 -0.000053
vn -0.868270 -0.327549 -0.372583
vn -0.936492 -0.350688 0.001002
vn 0.000000 -1.000000 0.000000
vn 0.000000 -1.000000 0.000000
vn 0.000000 -1.000000 -0.000000
vn 0.000000 -1.000000 0.000000
vn 0.901454 -0.432874 -0.000053
vn 0.936492 -0.350688 0.001002
vn 0.868270 -0.327549 -0.372583
vn 0.842466 -0.399227 -0.361758
vn 0.960545 -0.278124 -0.000546
vn 0.884060 -0.272461 -0.379742
vn 1.000000 0.000000 0.000000
vn 0.918881 0.000000 -0.394534
vn 1.000000 0.000000 0.000000
vn 0.918881 0.000000 -0.394534
vn 0.418993 0.907989 0.000558
vn 0.137282 0.990532 -0.000000
vn 0.145089 0.978867 0.144112
vn 0.427486 0.896938 0.112954
vn 0.000000 0.000000 -1.000000
vn 0.394534 0.000000 -0.918881
vn 0.394534 0.000000 -0.918881
vn 0.000000 0.000000 -1.000000
vn -0.000000 -0.277434 -0.960745
vn 0.379787 -0.272929 -0.883896
vn 0.000000 -0.429665 -0.902988
vn 0.361486 -0.400971 -0.841754
vn 0.000000 -0.348090 -0.937461
vn 0.372247 -0.328942 -0.867888
vn 0.000000 -1.000000 0.000000
vn 0.000000 -1.000000 0.000000
vn 0.000000 -1.000000 0.000000
vn 0.000000 -1.000000 0.000000
vn 0.000000 -1.000000 0.000000
vn 0.000000 -1.000000 0.000000
vn 0.000000 -1.000000 -0.000000
vn 0.000000 -1.000000 0.000000
vn -0.000000 -0.436936 0.899493
vn 0.000000 -0.333037 0.942914
vn 0.355853 -0.315210 0.879779
vn 0.345140 -0.398383 0.849806
vn 0.000000 -0.294065 0.955785
vn 0.371334 -0.282522 0.884473
vn 0.000000 0.000000 1.000000
vn 0.394534 0.000000 0.918881
vn 0.000000 0.000000 1.000000
vn 0.394534 0.000000 0.918881
vn 0.000000 0.990397 -0.138251
vn 0.000000 0.904078 -0.427368
vn -0.120198 0.891876 -0.436016
vn -0.144683 0.978711 -0.145573
vn 0.000000 0.990664 0.136326
vn 0.000000 1.000000 0.000000
vn -0.137282 0.990532 0.000000
vn -0.145089 0.978867 0.144112
vn 0.436725 0.000000 -0.899595
vn 0.436725 0.000000 -0.899595
vn 0.422609 -0.262765 -0.867385
vn 0.406643 -0.406453 -0.818192
vn 0.423506 -0.329372 -0.843894
vn 0.000000 -1.000000 0.000000
vn 0.000000 -1.000000 0.000000
vn 0.000000 -1.000000 -0.000000
vn 0.000000 -1.000000 0.000000
vn 0.339345 -0.323130 0.883421
vn 0.332009 -0.401982 0.853335
vn 0.358097 -0.255660 0.898001
vn 0.371794 0.000000 0.928315
vn 0.371794 0.000000 0.928315
vn -0.486348 0.725900 -0.486348
vn -0.429506 0.895943 -0.113181
vn -0.418993 0.907989 0.000558
vn -0.427486 0.896938 0.112954
vn -0.907578 0.000000 -0.419883
vn -0.907578 0.000000 -0.419883
vn -0.875962 -0.260496 -0.405996
vn -0.827562 -0.406163 -0.387521
vn -0.854713 -0.328046 -0.402307
vn 0.000000 -1.000000 0.000000
vn 0.000000 -1.000000 0.000000
vn 0.000000 -1.000000 0.000000
vn 0.000000 -1.000000 0.000000
vn 0.000000 -1.000000 0.000000
vn 0.854713 -0.328046 -0.402307
vn 0.827562 -0.406163 -0.387521
vn 0.875961 -0.260496 -0.405996
vn 0.907578 0.000000 -0.419883
vn 0.907578 0.000000 -0.419883
vn -0.106099 0.900781 0.421113
vn -0.486348 0.725900 0.486349
vn 0.000000 0.911668 0.410927
vn 0.106099 0.900781 0.421113
vn 0.486348 0.725900 0.486348
s 1
g pCube12
usemtl standardSurface8SG
f 1/1/1 61/79/2 62/81/3 18/28/4
s 2
f 3/3/5 65/84/6 98/125/7 83/107/8
s 3
f 19/30/9 58/76/10 59/77/11 7/7/12
s 4
f 87/112/13 88/113/14 61/80/15 1/9/16
s 5
f 2/2/17 91/117/18 92/118/19 17/27/20
s 6
f 87/111/21 1/1/22 18/28/23 86/110/24
s 1
f 10/16/25 63/82/26 64/83/27 14/22/28
s 6
f 85/109/29 10/16/30 14/22/31 84/108/32
s 3
f 15/24/33 56/74/34 57/75/35 11/18/36
s 5
f 9/15/37 93/119/38 94/120/39 13/21/40
s 1
f 14/22/28 64/83/27 65/84/41 3/3/42
s 6
f 84/108/32 14/22/31 3/3/43 83/106/44
s 3
f 5/5/45 55/73/46 56/74/34 15/24/33
s 5
f 13/21/40 94/120/39 95/122/47 4/4/48
s 1
f 18/28/4 62/81/3 63/82/26 10/16/25
s 6
f 86/110/24 18/28/23 10/16/30 85/109/29
s 3
f 11/18/36 57/75/35 58/76/10 19/30/9
s 5
f 17/27/20 92/118/19 93/119/38 9/15/37
s 6
f 68/88/49 22/35/50 21/33/51 67/86/52
f 69/89/53 23/36/54 22/35/50 68/88/49
f 70/90/55 24/37/56 23/36/54 69/89/53
f 71/91/57 25/38/58 24/37/56 70/90/55
s 4
f 71/92/59 72/93/60 60/78/61 25/39/62
s 5
f 27/42/63 26/41/64 75/97/65 76/98/66
f 28/43/67 27/42/63 76/98/66 77/99/68
f 29/44/69 28/43/67 77/99/68 78/100/70
f 30/46/71 29/44/69 78/100/70 79/102/72
s 2
f 21/34/73 66/85/74 82/105/75 67/87/76
s 3
f 31/47/77 43/60/78 44/61/79 32/48/80
f 33/49/81 32/48/80 44/61/79 45/62/82
f 34/50/83 33/49/81 45/62/82 46/63/84
f 35/51/85 34/50/83 46/63/84 47/64/86
s 4
f 36/52/87 73/94/88 74/95/89 48/65/90
f 37/54/91 89/114/92 90/115/93 49/67/94
s 1
f 38/55/95 37/53/96 49/66/97 50/68/98
f 39/56/99 38/55/95 50/68/98 51/69/100
f 40/57/101 39/56/99 51/69/100 52/70/102
f 41/58/103 40/57/101 52/70/102 53/71/104
s 2
f 97/124/105 41/58/106 53/71/107 96/123/108
f 81/104/109 42/59/110 54/72/111 80/103/112
s 3
f 43/60/78 6/6/113 16/25/114 44/61/79
f 45/62/82 44/61/79 16/25/114 12/19/115
f 46/63/84 45/62/82 12/19/115 20/31/116
f 47/64/86 46/63/84 20/31/116 8/8/117
s 4
f 48/65/90 74/95/89 75/96/118 26/40/119
f 49/67/94 90/115/93 91/116/120 2/10/121
s 1
f 50/68/98 49/66/97 2/2/122 17/27/123
f 51/69/100 50/68/98 17/27/123 9/15/124
f 52/70/102 51/69/100 9/15/124 13/21/125
f 53/71/104 52/70/102 13/21/125 4/4/126
s 2
f 96/123/108 53/71/107 4/4/127 95/121/128
f 80/103/112 54/72/111 30/45/129 79/101/130
s 3
f 55/73/46 31/47/77 32/48/80 56/74/34
f 57/75/35 56/74/34 32/48/80 33/49/81
f 58/76/10 57/75/35 33/49/81 34/50/83
f 59/77/11 58/76/10 34/50/83 35/51/85
s 4
f 60/78/61 72/93/60 73/94/88 36/52/87
f 61/80/15 88/113/14 89/114/92 37/54/91
s 1
f 62/81/3 61/79/2 37/53/96 38/55/95
f 63/82/26 62/81/3 38/55/95 39/56/99
f 64/83/27 63/82/26 39/56/99 40/57/101
f 65/84/41 64/83/27 40/57/101 41/58/103
s 2
f 98/125/7 65/84/6 41/58/106 97/124/105
f 82/105/75 66/85/74 42/59/110 81/104/109
s 6
f 15/23/131 68/88/49 67/86/52 5/14/132
f 11/17/133 69/89/53 68/88/49 15/23/131
f 19/29/134 70/90/55 69/89/53 11/17/133
f 7/13/135 71/91/57 70/90/55 19/29/134
s 4
f 7/7/136 59/77/137 72/93/60 71/92/59
f 73/94/88 72/93/60 59/77/137 35/51/138
f 74/95/89 73/94/88 35/51/138 47/64/139
f 75/96/118 74/95/89 47/64/139 8/8/140
s 5
f 76/98/66 75/97/65 8/11/141 20/32/142
f 77/99/68 76/98/66 20/32/142 12/20/143
f 78/100/70 77/99/68 12/20/143 16/26/144
f 79/102/72 78/100/70 16/26/144 6/12/145
s 2
f 43/60/146 80/103/112 79/101/130 6/6/147
f 31/47/148 81/104/109 80/103/112 43/60/146
f 55/73/149 82/105/75 81/104/109 31/47/148
f 67/87/76 82/105/75 55/73/149 5/5/150
s 6
f 22/35/50 84/108/32 83/106/44 21/33/51
f 23/36/54 85/109/29 84/108/32 22/35/50
f 24/37/56 86/110/24 85/109/29 23/36/54
f 25/38/58 87/111/21 86/110/24 24/37/56
s 4
f 25/39/62 60/78/61 88/113/14 87/112/13
f 89/114/92 88/113/14 60/78/61 36/52/87
f 90/115/93 89/114/92 36/52/87 48/65/90
f 91/116/120 90/115/93 48/65/90 26/40/119
s 5
f 92/118/19 91/117/18 26/41/64 27/42/63
f 93/119/38 92/118/19 27/42/63 28/43/67
f 94/120/39 93/119/38 28/43/67 29/44/69
f 95/122/47 94/120/39 29/44/69 30/46/71
s 2
f 54/72/111 96/123/108 95/121/128 30/45/129
f 42/59/110 97/124/105 96/123/108 54/72/111
f 66/85/74 98/125/7 97/124/105 42/59/110
f 83/107/8 98/125/7 66/85/74 21/34/73
